<svg xmlns="http://www.w3.org/2000/svg" width="17.711" height="15.022" viewBox="0 0 17.711 15.022"><path d="M15.513,2.455h-2.25L12.457.733A1.253,1.253,0,0,0,11.328,0H6.419A1.246,1.246,0,0,0,5.3.733L4.477,2.455H2.2A2.2,2.2,0,0,0,0,4.653v8.17a2.2,2.2,0,0,0,2.2,2.2H15.513a2.2,2.2,0,0,0,2.2-2.2V4.675a2.2,2.2,0,0,0-2.2-2.22ZM8.866,13.072A4.323,4.323,0,1,1,13.19,8.749,4.323,4.323,0,0,1,8.866,13.072ZM14.6,5.7a.733.733,0,1,1,.733-.733A.733.733,0,0,1,14.6,5.7Z" transform="translate(0 0)" fill="rgba(0,0,0,.54)"/><circle cx="2.931" cy="2.931" r="2.931" transform="translate(5.935 5.818)" fill="rgba(0,0,0,.54)"/></svg>