<svg xmlns="http://www.w3.org/2000/svg" width="26" height="26" viewBox="0 0 26 26"><g transform="translate(-295 -470)"><rect width="26" height="26" rx="13" transform="translate(295 470)" opacity="0.6"/><g transform="translate(4.279 -0.151)"><path d="M4.74,2.964a.422.422,0,0,1-.65,0L2.913,1.786V5.414c-.022.86-.934.73-.934,0V1.827L.8,2.964a.422.422,0,0,1-.65,0,.422.422,0,0,1,0-.65L2.426,0,4.74,2.314A.423.423,0,0,1,4.74,2.964Z" transform="translate(311.451 480.866) rotate(90)" fill="#fff"/><path d="M4.74,3.047a.422.422,0,0,0-.65,0L2.913,4.224V.6c-.022-.86-.934-.73-.934,0V4.184L.8,3.047a.422.422,0,0,0-.65,0,.422.422,0,0,0,0,.65L2.426,6.011,4.74,3.7A.423.423,0,0,0,4.74,3.047Z" transform="translate(302.011 480.866) rotate(90)" fill="#fff"/><line y2="8.806" transform="translate(303.867 478.74)" fill="none" stroke="#fff" stroke-linecap="round" stroke-width="1"/></g></g></svg>