<svg xmlns="http://www.w3.org/2000/svg" width="14.272" height="14.273" viewBox="0 0 14.272 14.273"><g transform="translate(-272 -638.834)"><ellipse cx="7.136" cy="7.136" rx="7.136" ry="7.136" transform="translate(272 638.834)" fill="#999"/><path d="M.457-6.129H1.834A1.194,1.194,0,0,1,3.123-7.3a1.1,1.1,0,0,1,1.23,1.049c0,.58-.246.891-.973,1.33a1.843,1.843,0,0,0-1.1,1.881l.006.4H3.65v-.334c0-.58.217-.879.984-1.33a2.219,2.219,0,0,0,1.242-2C5.877-7.6,4.8-8.525,3.2-8.525A2.444,2.444,0,0,0,.457-6.129ZM3.035.152a.891.891,0,0,0,.973-.932.893.893,0,0,0-.973-.937.9.9,0,0,0-.973.938A.9.9,0,0,0,3.035.152Z" transform="translate(276 650)" fill="#fff"/></g></svg>