<svg xmlns="http://www.w3.org/2000/svg" width="26" height="26" viewBox="0 0 26 26"><g transform="translate(-17 -203)"><rect width="26" height="26" rx="13" transform="translate(17 203)" opacity="0.6"/><g transform="translate(20.777 205.807)"><path d="M4.423,9.052,0,4.578,4.423.154a.5.5,0,0,1,.72,0h0a.5.5,0,0,1,0,.72l-3.7,3.7,3.7,3.7a.5.5,0,0,1,0,.72h0A.46.46,0,0,1,4.423,9.052Z" transform="translate(0 12.927) rotate(-45)" fill="#fff"/><path d="M4.423,9.052,0,4.578,4.423.154a.5.5,0,0,1,.72,0h0a.5.5,0,0,1,0,.72l-3.7,3.7,3.7,3.7a.5.5,0,0,1,0,.72h0A.46.46,0,0,1,4.423,9.052Z" transform="translate(18.361 7.506) rotate(135)" fill="#fff"/></g></g></svg>