<svg xmlns="http://www.w3.org/2000/svg" width="26" height="26" viewBox="0 0 26 26"><g transform="translate(-337 -142)"><rect width="26" height="26" rx="13" transform="translate(337 142)" opacity="0.6"/><g transform="translate(342.05 149)"><path d="M21.489,6.709,19.079,4.3,16.67,6.709a.478.478,0,0,0,.676.676L18.572,6.16v4.776a2.742,2.742,0,0,1-2.747,2.747H9.907a.514.514,0,0,0-.507.507.488.488,0,0,0,.507.507h5.918a3.725,3.725,0,0,0,3.72-3.72V6.2L20.77,7.428a.514.514,0,0,0,.676,0A.526.526,0,0,0,21.489,6.709Z" transform="translate(-5.412 -2.482)" fill="#fff"/><path d="M4.96,7.27a.439.439,0,0,0-.676,0L3.058,8.5V3.72A2.742,2.742,0,0,1,5.805.972h5.918A.514.514,0,0,0,12.23.465.456.456,0,0,0,11.723,0H5.805a3.725,3.725,0,0,0-3.72,3.72V8.454L.86,7.27a.439.439,0,0,0-.676,0,.439.439,0,0,0,0,.676l2.367,2.409L4.96,7.946A.44.44,0,0,0,4.96,7.27Z" fill="#fff"/></g></g></svg>